<svg xmlns="http://www.w3.org/2000/svg" xmlns:xlink="http://www.w3.org/1999/xlink" width="40" height="40"><defs><path id="a" d="M20 0c11.046 0 20 8.954 20 20s-8.954 20-20 20S0 31.046 0 20 8.954 0 20 0z"/><path id="c" d="M1.148 2.2L3.433 0l2.834 2.2 2.047 1.414-.512 3.783h-5.63L0 3.614z"/><path id="e" d="M9.001 6.588a.167.167 0 0 1-.164-.053c-.16-.181-.32-.35-.478-.5a.168.168 0 0 1 .232-.243c.165.157.332.333.499.522a.167.167 0 0 1-.09.274zm.802 1.039a.169.169 0 0 1-.176-.068 12.483 12.483 0 0 0-.411-.564.169.169 0 0 1 .266-.206c.14.182.282.377.422.579a.168.168 0 0 1-.1.259zm.7 1.111a.168.168 0 0 1-.184-.08 15.521 15.521 0 0 0-.361-.6.168.168 0 1 1 .284-.18c.125.198.249.404.368.613a.168.168 0 0 1-.108.247zm-1.5-1.286c.124.383.033.802-.15 1.147-.17.322-.544.59-.889.684-.334.092-.854.065-1.146-.15a7.985 7.985 0 0 1-.929-.781c-.407-.407-.801-.877-1.048-1.4-.355-.754-.516-1.6-.214-2.407.258-.692.72-1.316 1.4-1.648a3.432 3.432 0 0 1 1.252-.36c.384-.042.78.187 1.052.436.292.269.419.668.436 1.053.016.37-.178.794-.436 1.052-.234.234-.498.34-.795.396l-.01.006.137-.018a1.376 1.376 0 0 0-.17.037l-.038.022v.004c.06.118.128.231.202.34.27.327.573.627.906.886.111.101.212.213.29.346l.15.355zM3.16 1.456c.245.654.427 1.332.558 2.017.222 1.16.332 2.348.238 3.527-.033.413-.157.749-.436 1.053-.268.292-.667.418-1.052.435-.37.017-.794-.177-1.053-.435C1.166 7.803.95 7.363.98 7c.06-.747.036-1.496-.05-2.24C.786 3.808.553 2.855.18 1.968l.053.125a1.479 1.479 0 0 1-.129-.574l.053-.395C.243.744.522.439.84.234c.316-.204.79-.248 1.147-.15.322.089.746.365.89.684.1.226.196.456.282.688z"/><path id="g" d="M24.547 25.045c.003-.234-1.157-.441-2.592-.463-1.249-.019-2.292.109-2.547.296-.76.045-1.294.164-1.296.313-.002.15.542.287 1.321.355-.06.028-.094.059-.094.092-.003.165.815.311 1.826.327 1.011.015 1.833-.106 1.836-.271.001-.105-.326-.202-.822-.263h.002c1.323 0 2.363-.165 2.366-.386m-15.7-11.124a1.998 1.998 0 0 1-.81 1.067c-.722.491-1.64.657-2.496.725a10.27 10.27 0 0 1-1.673.004.103.103 0 0 1-.083-.06c-.2-.46-.359-.939-.49-1.422-.326-1.213-.604-3.027.599-3.87.577-.405 1.33-.523 1.946-.132.53.336.801.95.78 1.562.568-.213 1.226-.156 1.714.227.586.461.704 1.21.513 1.9m13.762 3.052c-.095-.344-.362-.718-.684-.889-.346-.182-.764-.273-1.147-.15l-.355.15a1.52 1.52 0 0 0-.34.282 8.125 8.125 0 0 1-1.345 1.329 9.72 9.72 0 0 1-.924.609 14.067 14.067 0 0 1-2.783-.793 12.2 12.2 0 0 1-2.114-1.196 7.35 7.35 0 0 0 2.033-3.729c.244-1.268.094-2.4-.374-3.767-.022-.065.05-.119.103-.074l.069.06 1.226 1.065a.29.29 0 0 0 .408-.03l1.007-1.16a1.066 1.066 0 0 0-.106-1.504l-.751-.652a1.066 1.066 0 0 0-1.505.106l-.811.934-.037.043a.163.163 0 0 1-.255-.013 3.856 3.856 0 0 0-1.256-1.081.164.164 0 0 1-.05-.252l.336-.386.517-.596a1.066 1.066 0 0 0-.106-1.505l-.752-.652a1.067 1.067 0 0 0-1.504.106l-.828.954-.18.206a.29.29 0 0 0 .03.409l1.379 1.198c.049.042.013.123-.05.113a3.704 3.704 0 0 0-.885-.028c-.775.068-1.445.414-2.113.778-.712.387-7.074 3.837-7.183 3.91-.415.289-.317.785-.269 1.218.049.442.112.887.233 1.316.51 1.802 1.768 3.354 3.402 4.255a7.11 7.11 0 0 0 3.685.867 7.29 7.29 0 0 0 .809-.114c.225 1.808.295 3.65.148 5.465-.03.361.187.803.436 1.052.258.258.681.452 1.052.435.385-.017.784-.143 1.052-.435.28-.304.403-.64.436-1.052a26.215 26.215 0 0 0-.03-4.359c.045.027.087.058.132.084.419.239.854.447 1.296.64a3.14 3.14 0 0 0-.735.815c-.586.977-.283 2.24.344 3.118a7.467 7.467 0 0 0 1.692 1.702c.293.215.813.242 1.147.15.345-.096.719-.363.889-.684.182-.345.274-.764.15-1.147l-.15-.356a1.496 1.496 0 0 0-.29-.345 5.854 5.854 0 0 1-.906-.885c-.038-.056-.076-.11-.11-.168a6.09 6.09 0 0 1 .689-.36 14.595 14.595 0 0 1 2.084-.68c.165-.04.316-.119.454-.218.35-.174.689-.38 1.012-.598.45-.305.887-.64 1.296-1 .465-.411.853-.872 1.232-1.364.218-.283.24-.82.15-1.147"/><path id="i" d="M27 2.568v-.64c-3.832 6.829-11.957 12.974-13.295 13.957-.12-.061-.27-.064-.424.045-1.312.927-2.839 1.714-4.537 2.337a.487.487 0 0 0-.32.381.521.521 0 0 0 .162.484c.071.06.156.09.248.09.054 0 .11-.01.166-.031 1.825-.67 3.427-1.488 4.764-2.433a.505.505 0 0 0 .161-.638C15.331 15.084 23.065 9.207 27 2.568"/></defs><g fill="none" fill-rule="evenodd"><mask id="b" fill="#fff"><use xlink:href="#a"/></mask><use fill="#000" fill-opacity="0" xlink:href="#a"/><g fill="#008177" mask="url(#b)"><path d="M0 0h40v40H0z"/></g><g transform="translate(6.667 6.667)"><g transform="translate(1.446 9.16)"><mask id="d" fill="#fff"><use xlink:href="#c"/></mask><use fill="#FFF" fill-rule="nonzero" xlink:href="#c"/><g fill="#008177" mask="url(#d)"><path d="M-1.446-9.16h27v27h-27z"/></g></g><g transform="translate(10.125 15.91)"><mask id="f" fill="#fff"><use xlink:href="#e"/></mask><use fill="#C4314D" fill-opacity="0" xlink:href="#e"/><g fill="#D4D5D6" mask="url(#f)"><path d="M-10.125-15.91h27v27h-27z"/></g></g><mask id="h" fill="#fff"><use xlink:href="#g"/></mask><use fill="#EE395D" fill-opacity="0" xlink:href="#g"/><g fill="#FFF" mask="url(#h)"><path d="M0 0h27v27H0z"/></g><mask id="j" fill="#fff"><use xlink:href="#i"/></mask><use fill="#3097D3" fill-opacity="0" xlink:href="#i"/><g fill="#D4D5D6" mask="url(#j)"><path d="M0 0h27v27H0z"/></g></g></g></svg>